<svg xmlns="http://www.w3.org/2000/svg" xmlns:xlink="http://www.w3.org/1999/xlink" width="512" height="512" viewBox="0 0 512 512">
    <defs>
        <path id="prefix__a" d="M0 0H512V512H0z"/>
    </defs>
    <g fill="none" fill-rule="evenodd">
        <mask id="prefix__b" fill="#fff">
            <use xlink:href="#prefix__a"/>
        </mask>
        <use fill="#3EAE64" xlink:href="#prefix__a"/>
        <g fill="#FFF" fill-rule="nonzero" mask="url(#prefix__b)">
            <path d="M359.555 191.905c-.045-.145-.111-.268-.167-.407-.053-.079-.101-.16-.144-.246-.142-.35-.328-.682-.554-.986-.803-.853-1.935-1.313-3.101-1.26H343.02l-11.981-49.2c-.119-1.302-.71-2.514-1.662-3.405-.862-.808-1.996-1.259-3.174-1.26h-14.883c-1.117-.08-2.205.38-2.93 1.238-.685.992-.941 2.22-.71 3.405l11.982 49.2H192.332l11.98-49.2c.234-1.184-.02-2.413-.703-3.405-.722-.868-1.813-1.336-2.936-1.26h-14.86c-1.179.001-2.313.451-3.175 1.26-.951.89-1.543 2.103-1.661 3.405l-11.981 49.2h-12.568c-1.553-.102-3.002.791-3.617 2.23-.118.155-.222.321-.31.495 0 .045 0 .1-.034.15-.178.442-.276.913-.29 1.389v178.917c-.028 1.222.417 2.408 1.243 3.305.755.878 1.855 1.377 3.008 1.366h97.032c20.2 0 35.154-4.493 44.866-13.478 9.712-8.984 14.815-22.915 15.31-41.792.273-7.832.408-13.035.404-15.606 0-2.701-.134-7.97-.404-15.807-.798-36.746-21.196-55.119-61.195-55.119h-49.624c-1.335-.064-2.633.454-3.562 1.421-.898.994-1.372 2.303-1.318 3.646v86.108c-.03 1.222.414 2.406 1.235 3.306.756.876 1.856 1.373 3.008 1.36h20.184c1.186.048 2.33-.453 3.102-1.36.77-.924 1.178-2.1 1.147-3.306V258.55h24.809c11.388 0 19.728 2.6 25.02 7.803 5.291 5.202 8.06 13.342 8.308 24.419.273 7.836.408 12.834.404 14.993 0 2.021-.134 7.086-.404 15.194-.27 11.62-2.913 19.928-7.932 24.926-5.018 4.997-13.153 7.496-24.405 7.496h-76.876V212.505h160.925v159.71c-.028 1.222.417 2.407 1.241 3.305.755.878 1.855 1.377 3.008 1.366h14.861c1.187.047 2.33-.456 3.102-1.366.771-.923 1.18-2.1 1.148-3.305V193.298c-.01-.476-.1-.948-.267-1.393z"/>
        </g>
    </g>
</svg>
